<svg width="26" height="26" viewBox="0 0 26 26" fill="none" xmlns="http://www.w3.org/2000/svg">
<path id="Vector" d="M13.0003 7.9306C13.4115 7.9306 13.8058 7.77634 14.0966 7.50177C14.3874 7.22719 14.5507 6.85479 14.5507 6.46648C14.5507 6.07817 14.3874 5.70577 14.0966 5.43119C13.8058 5.15662 13.4115 5.00236 13.0003 5.00236C12.5891 5.00236 12.1947 5.15662 11.904 5.43119C11.6132 5.70577 11.4498 6.07817 11.4498 6.46648C11.4498 6.85479 11.6132 7.22719 11.904 7.50177C12.1947 7.77634 12.5891 7.9306 13.0003 7.9306ZM14.5218 1.01021C14.0917 0.680164 13.5544 0.5 13.0003 0.5C12.4461 0.5 11.9088 0.680164 11.4788 1.01021L1.13838 8.94572C-0.118514 9.91399 0.605025 11.8349 2.22575 11.8349H2.66401V20.034C1.43606 20.6255 0.596755 21.8299 0.596755 23.2218V24.5239C0.596755 24.7828 0.705655 25.0311 0.899498 25.2141C1.09334 25.3972 1.35625 25.5 1.63038 25.5H24.3702C24.6443 25.5 24.9072 25.3972 25.1011 25.2141C25.2949 25.0311 25.4038 24.7828 25.4038 24.5239V23.2218C25.4038 21.8319 24.5645 20.6255 23.3366 20.034V11.8349H23.7748C25.3955 11.8349 26.1191 9.91204 24.8601 8.94572L14.5238 1.00825L14.5218 1.01021ZM12.7853 2.52508C12.8467 2.47817 12.9233 2.45258 13.0023 2.45258C13.0814 2.45258 13.158 2.47817 13.2194 2.52508L22.8011 9.88275H3.19736L12.7853 2.52508ZM21.2693 19.6435H19.202V11.8349H21.2693V19.6435ZM17.1348 19.6435H14.0339V11.8349H17.1348V19.6435ZM11.9667 19.6435H8.86577V11.8349H11.9667V19.6435ZM21.6145 21.5957C22.5655 21.5957 23.3366 22.3238 23.3366 23.2218V23.5478H2.66401V23.2218C2.66401 22.3238 3.4351 21.5957 4.38603 21.5957H21.6145ZM6.79852 19.6435H4.73126V11.8349H6.79852V19.6435Z" fill="#344054"/>
</svg>
