<svg width="36" height="36" viewBox="0 0 36 36" fill="none" xmlns="http://www.w3.org/2000/svg">
<rect x="0.5" y="0.5" width="35" height="35" rx="17.5" fill="#EFF8FF"/>
<path d="M18.8333 9.66699H12.9999C12.5579 9.66699 12.134 9.84259 11.8214 10.1551C11.5088 10.4677 11.3333 10.8916 11.3333 11.3337V24.667C11.3333 25.109 11.5088 25.5329 11.8214 25.8455C12.134 26.1581 12.5579 26.3337 12.9999 26.3337H22.9999C23.4419 26.3337 23.8659 26.1581 24.1784 25.8455C24.491 25.5329 24.6666 25.109 24.6666 24.667V15.5003M18.8333 9.66699L24.6666 15.5003M18.8333 9.66699V15.5003H24.6666" stroke="#2E90FA" stroke-width="1.5" stroke-linecap="round" stroke-linejoin="round"/>
<rect x="0.5" y="0.5" width="35" height="35" rx="17.5" stroke="#84CAFF"/>
</svg>
